<?xml version="1.0" encoding="UTF-8"?>
<svg width="1100" height="1500" xmlns="http://www.w3.org/2000/svg" xmlns:xlink="http://www.w3.org/1999/xlink">
    <!-- 样式定义 -->
    <defs>
        <style type="text/css">
            .layer-title {
                font-family: 'Arial', sans-serif;
                font-size: 18px;
                font-weight: bold;
                fill: #333;
            }
            .layer-box {
                stroke: #2c3e50;
                stroke-width: 2;
                fill: #ecf0f1;
            }
            .module-title {
                font-family: 'Arial', sans-serif;
                font-size: 14px;
                font-weight: bold;
                fill: #2c3e50;
            }
            .module-box {
                stroke: #7f8c8d;
                stroke-width: 1.5;
                fill: #ffffff;
            }
            .agent-circle {
                stroke: #3498db;
                stroke-width: 1.5;
                fill: #d6eaf8;
            }
            .agent-text {
                font-family: 'Arial', sans-serif;
                font-size: 12px;
                fill: #2980b9;
                text-anchor: middle;
                dominant-baseline: middle;
            }
            .arrow {
                stroke: #95a5a6;
                stroke-width: 2;
                fill: none;
                marker-end: url(#arrowhead);
            }
            .data-flow {
                stroke: #27ae60;
                stroke-width: 2;
                stroke-dasharray: 5, 3;
                fill: none;
                marker-end: url(#datahead);
            }
            .control-flow {
                stroke: #e74c3c;
                stroke-width: 2;
                stroke-dasharray: 8, 3;
                fill: none;
                marker-end: url(#controlhead);
            }
            .module-desc {
                font-family: 'Arial', sans-serif;
                font-size: 12px;
                fill: #555;
            }
            .system-title {
                font-family: 'Arial', sans-serif;
                font-size: 24px;
                font-weight: bold;
                fill: #2c3e50;
            }
        </style>
        <marker id="arrowhead" markerWidth="10" markerHeight="7" refX="9" refY="3.5" orient="auto">
            <polygon points="0 0, 10 3.5, 0 7" fill="#95a5a6"/>
        </marker>
        <marker id="datahead" markerWidth="10" markerHeight="7" refX="9" refY="3.5" orient="auto">
            <polygon points="0 0, 10 3.5, 0 7" fill="#27ae60"/>
        </marker>
        <marker id="controlhead" markerWidth="10" markerHeight="7" refX="9" refY="3.5" orient="auto">
            <polygon points="0 0, 10 3.5, 0 7" fill="#e74c3c"/>
        </marker>
    </defs>

    <!-- 背景 -->
    <rect x="0" y="0" width="1100" height="1500" fill="#f9f9f9"/>

    <!-- 系统标题 -->
    <text x="550" y="40" class="system-title" text-anchor="middle">OKX量化交易系统 - 大模型多智能体架构</text>

    <!-- 1. 数据获取层 -->
    <rect x="100" y="80" width="900" height="180" rx="10" ry="10" class="layer-box" fill="#d6eaf8" opacity="0.7"/>
    <text x="550" y="100" class="layer-title" text-anchor="middle">数据获取层</text>
    
    <rect x="130" y="120" width="260" height="120" rx="5" ry="5" class="module-box"/>
    <text x="260" y="140" class="module-title" text-anchor="middle">市场数据采集模块</text>
    <text x="140" y="160" class="module-desc">• 实时行情数据获取</text>
    <text x="140" y="180" class="module-desc">• 历史K线数据获取</text>
    <text x="140" y="200" class="module-desc">• 资金费率和深度数据</text>
    <text x="140" y="220" class="module-desc">• 数据流管理系统</text>
    
    <rect x="420" y="120" width="260" height="120" rx="5" ry="5" class="module-box"/>
    <text x="550" y="140" class="module-title" text-anchor="middle">外部数据采集模块</text>
    <text x="430" y="160" class="module-desc">• 新闻API和社交媒体数据</text>
    <text x="430" y="180" class="module-desc">• 宏观经济数据接口</text>
    <text x="430" y="200" class="module-desc">• 链上数据采集</text>
    <text x="430" y="220" class="module-desc">• 数据源管理系统</text>
    
    <rect x="710" y="120" width="260" height="120" rx="5" ry="5" class="module-box"/>
    <text x="840" y="140" class="module-title" text-anchor="middle">数据预处理模块</text>
    <text x="720" y="160" class="module-desc">• 数据清洗和标准化</text>
    <text x="720" y="180" class="module-desc">• 缺失值处理</text>
    <text x="720" y="200" class="module-desc">• 技术指标计算</text>
    <text x="720" y="220" class="module-desc">• 特征工程管道</text>

    <!-- 2. 数据缓存层 -->
    <rect x="100" y="280" width="900" height="120" rx="10" ry="10" class="layer-box" fill="#d6eaf8" opacity="0.7"/>
    <text x="550" y="300" class="layer-title" text-anchor="middle">数据缓存层 (Redis)</text>
    
    <rect x="130" y="320" width="410" height="60" rx="5" ry="5" class="module-box"/>
    <text x="335" y="340" class="module-title" text-anchor="middle">实时数据缓存</text>
    <text x="140" y="360" class="module-desc">• 行情数据 • 订单簿 • 热点数据访问 • 缓存策略</text>
    
    <rect x="560" y="320" width="410" height="60" rx="5" ry="5" class="module-box"/>
    <text x="765" y="340" class="module-title" text-anchor="middle">缓存管理</text>
    <text x="570" y="360" class="module-desc">• 失效策略 • 更新机制 • 分布式缓存同步</text>

    <!-- 3. 多智能体分析层 -->
    <rect x="100" y="420" width="900" height="320" rx="10" ry="10" class="layer-box" fill="#ebf5fb" opacity="0.7"/>
    <text x="550" y="440" class="layer-title" text-anchor="middle">多智能体分析层</text>
    
    <rect x="130" y="460" width="410" height="160" rx="5" ry="5" class="module-box"/>
    <text x="335" y="480" class="module-title" text-anchor="middle">K线分析智能体集群</text>
    
    <circle cx="175" cy="510" r="20" class="agent-circle"/>
    <text x="175" y="510" class="agent-text">K线形态</text>
    
    <circle cx="225" cy="510" r="20" class="agent-circle"/>
    <text x="225" y="510" class="agent-text">蜡烛图</text>
    
    <circle cx="275" cy="510" r="20" class="agent-circle"/>
    <text x="275" y="510" class="agent-text">周期性</text>
    
    <circle cx="325" cy="510" r="20" class="agent-circle"/>
    <text x="325" y="510" class="agent-text">突破</text>
    
    <circle cx="375" cy="510" r="20" class="agent-circle"/>
    <text x="375" y="510" class="agent-text">成交量</text>
    
    <circle cx="175" cy="560" r="20" class="agent-circle"/>
    <text x="175" y="560" class="agent-text">波动率</text>
    
    <circle cx="225" cy="560" r="20" class="agent-circle"/>
    <text x="225" y="560" class="agent-text">多周期</text>
    
    <circle cx="275" cy="560" r="20" class="agent-circle"/>
    <text x="275" y="560" class="agent-text">价格行为</text>
    
    <rect x="560" y="460" width="410" height="160" rx="5" ry="5" class="module-box"/>
    <text x="765" y="480" class="module-title" text-anchor="middle">市场环境智能体集群</text>
    
    <circle cx="635" cy="510" r="20" class="agent-circle"/>
    <text x="635" y="510" class="agent-text">实时行情</text>
    
    <circle cx="685" cy="510" r="20" class="agent-circle"/>
    <text x="685" y="510" class="agent-text">跨市场</text>
    
    <circle cx="735" cy="510" r="20" class="agent-circle"/>
    <text x="735" y="510" class="agent-text">情绪分析</text>
    
    <circle cx="785" cy="510" r="20" class="agent-circle"/>
    <text x="785" y="510" class="agent-text">趋势捕捉</text>
    
    <circle cx="835" cy="510" r="20" class="agent-circle"/>
    <text x="835" y="510" class="agent-text">波动套利</text>
    
    <circle cx="735" cy="560" r="20" class="agent-circle"/>
    <text x="735" y="560" class="agent-text">流动性</text>
    
    <rect x="130" y="640" width="870" height="80" rx="5" ry="5" class="module-box"/>
    <text x="565" y="660" class="module-title" text-anchor="middle">智能体协调器</text>
    <text x="140" y="680" class="module-desc">• 信号聚合机制 • 冲突检测与解决 • 证据理论融合 • 动态权重分配</text>
    <text x="140" y="700" class="module-desc">• 大模型辅助决策 • 强化学习优化 • 智能体通信 • 状态维护</text>

    <!-- 4. 策略生成引擎 -->
    <rect x="100" y="760" width="900" height="180" rx="10" ry="10" class="layer-box" fill="#eafaf1" opacity="0.7"/>
    <text x="550" y="780" class="layer-title" text-anchor="middle">策略生成引擎</text>
    
    <rect x="130" y="800" width="260" height="120" rx="5" ry="5" class="module-box"/>
    <text x="260" y="820" class="module-title" text-anchor="middle">Alpha因子挖掘模块</text>
    <text x="140" y="840" class="module-desc">• 因子生成和评估</text>
    <text x="140" y="860" class="module-desc">• 因子正交化</text>
    <text x="140" y="880" class="module-desc">• 因子时效性分析</text>
    <text x="140" y="900" class="module-desc">• 因子组合优化</text>
    
    <rect x="420" y="800" width="260" height="120" rx="5" ry="5" class="module-box"/>
    <text x="550" y="820" class="module-title" text-anchor="middle">策略组合优化模块</text>
    <text x="430" y="840" class="module-desc">• 风险平价分配</text>
    <text x="430" y="860" class="module-desc">• 夏普比率最大化</text>
    <text x="430" y="880" class="module-desc">• 回撤控制策略</text>
    <text x="430" y="900" class="module-desc">• 动态策略调整</text>
    
    <rect x="710" y="800" width="260" height="120" rx="5" ry="5" class="module-box"/>
    <text x="840" y="820" class="module-title" text-anchor="middle">风险控制模块</text>
    <text x="720" y="840" class="module-desc">• VaR和风险指标计算</text>
    <text x="720" y="860" class="module-desc">• 动态止损策略</text>
    <text x="720" y="880" class="module-desc">• 敞口控制系统</text>
    <text x="720" y="900" class="module-desc">• 风险评估预警</text>

    <!-- 5. 决策优化层 -->
    <rect x="100" y="960" width="900" height="180" rx="10" ry="10" class="layer-box" fill="#fdedec" opacity="0.7"/>
    <text x="550" y="980" class="layer-title" text-anchor="middle">决策优化层</text>
    
    <rect x="130" y="1000" width="260" height="120" rx="5" ry="5" class="module-box"/>
    <text x="260" y="1020" class="module-title" text-anchor="middle">强化学习模块</text>
    <text x="140" y="1040" class="module-desc">• RL环境和代理接口</text>
    <text x="140" y="1060" class="module-desc">• PPO/DQN/A3C算法</text>
    <text x="140" y="1080" class="module-desc">• 多目标奖励函数</text>
    <text x="140" y="1100" class="module-desc">• 模型训练和更新</text>
    
    <rect x="420" y="1000" width="260" height="120" rx="5" ry="5" class="module-box"/>
    <text x="550" y="1020" class="module-title" text-anchor="middle">智能体投票系统</text>
    <text x="430" y="1040" class="module-desc">• 加权投票算法</text>
    <text x="430" y="1060" class="module-desc">• 信任度评分机制</text>
    <text x="430" y="1080" class="module-desc">• 动态阈值调整</text>
    <text x="430" y="1100" class="module-desc">• 冲突解决策略</text>
    
    <rect x="710" y="1000" width="260" height="120" rx="5" ry="5" class="module-box"/>
    <text x="840" y="1020" class="module-title" text-anchor="middle">交易信号生成器</text>
    <text x="720" y="1040" class="module-desc">• 信号强度和类型定义</text>
    <text x="720" y="1060" class="module-desc">• 确信度计算机制</text>
    <text x="720" y="1080" class="module-desc">• 信号过滤器</text>
    <text x="720" y="1100" class="module-desc">• 交易指令转换</text>

    <!-- 6. 执行层 -->
    <rect x="100" y="1160" width="900" height="120" rx="10" ry="10" class="layer-box" fill="#fef9e7" opacity="0.7"/>
    <text x="550" y="1180" class="layer-title" text-anchor="middle">执行层</text>
    
    <rect x="130" y="1200" width="260" height="60" rx="5" ry="5" class="module-box"/>
    <text x="260" y="1220" class="module-title" text-anchor="middle">交易执行模块</text>
    <text x="140" y="1240" class="module-desc">• 订单生成 • TWAP/VWAP • 智能执行</text>
    
    <rect x="420" y="1200" width="260" height="60" rx="5" ry="5" class="module-box"/>
    <text x="550" y="1220" class="module-title" text-anchor="middle">订单管理模块</text>
    <text x="430" y="1240" class="module-desc">• 状态追踪 • 修改与取消 • 异常处理</text>
    
    <rect x="710" y="1200" width="260" height="60" rx="5" ry="5" class="module-box"/>
    <text x="840" y="1220" class="module-title" text-anchor="middle">执行分析模块</text>
    <text x="720" y="1240" class="module-desc">• 滑点分析 • 执行质量 • 成本跟踪</text>

    <!-- 7. 反馈与优化层 -->
    <rect x="100" y="1300" width="900" height="120" rx="10" ry="10" class="layer-box" fill="#f4ecf7" opacity="0.7"/>
    <text x="550" y="1320" class="layer-title" text-anchor="middle">反馈与优化层</text>
    
    <rect x="130" y="1340" width="280" height="60" rx="5" ry="5" class="module-box"/>
    <text x="270" y="1360" class="module-title" text-anchor="middle">绩效评估模块</text>
    <text x="140" y="1380" class="module-desc">• 收益率指标 • 绩效归因 • 胜率统计</text>
    
    <rect x="440" y="1340" width="280" height="60" rx="5" ry="5" class="module-box"/>
    <text x="580" y="1360" class="module-title" text-anchor="middle">系统自优化模块</text>
    <text x="450" y="1380" class="module-desc">• 参数优化 • A/B测试 • 模型更新</text>
    
    <rect x="750" y="1340" width="220" height="60" rx="5" ry="5" class="module-box"/>
    <text x="860" y="1360" class="module-title" text-anchor="middle">日志与报告模块</text>
    <text x="760" y="1380" class="module-desc">• 日志系统 • 性能监控 • 警报</text>

    <!-- 8. 持久化存储层 -->
    <rect x="100" y="1440" width="900" height="40" rx="10" ry="10" class="layer-box" fill="#e8f8f5" opacity="0.7"/>
    <text x="550" y="1465" class="layer-title" text-anchor="middle">持久化存储层 (MySQL)</text>

    <!-- 数据流连接线 -->
    <!-- 从数据获取到数据缓存 -->
    <path d="M550,260 L550,280" class="data-flow"/>
    
    <!-- 从数据缓存到多智能体分析 -->
    <path d="M550,400 L550,420" class="data-flow"/>
    
    <!-- 从多智能体分析到策略生成 -->
    <path d="M550,740 L550,760" class="data-flow"/>
    
    <!-- 从策略生成到决策优化 -->
    <path d="M550,940 L550,960" class="data-flow"/>
    
    <!-- 从决策优化到执行层 -->
    <path d="M550,1140 L550,1160" class="data-flow"/>
    
    <!-- 从执行层到反馈层 -->
    <path d="M550,1280 L550,1300" class="data-flow"/>
    
    <!-- 从反馈层到持久化存储 -->
    <path d="M550,1420 L550,1440" class="data-flow"/>
    
    <!-- 反馈循环 - 从反馈层回到多智能体分析 -->
    <path d="M100,1360 Q50,1360 50,900 L50,500 Q50,420 100,420" class="control-flow"/>
    
    <!-- 反馈到决策优化 -->
    <path d="M100,1320 Q30,1320 30,1100 L30,960 Q30,920 100,960" class="control-flow"/>
    
    <!-- K线智能体到协调器 -->
    <path d="M335,620 L335,640" class="arrow"/>
    
    <!-- 市场智能体到协调器 -->
    <path d="M765,620 L765,640" class="arrow"/>

    <!-- 策略组件之间的协作 -->
    <path d="M390,860 L420,860" class="arrow"/>
    <path d="M680,860 L710,860" class="arrow"/>
    
    <!-- 决策优化组件之间的协作 -->
    <path d="M390,1060 L420,1060" class="arrow"/>
    <path d="M680,1060 L710,1060" class="arrow"/>
    
    <!-- 执行模块之间的协作 -->
    <path d="M390,1220 L420,1220" class="arrow"/>
    <path d="M680,1220 L710,1220" class="arrow"/>
    
    <!-- 反馈模块之间的协作 -->
    <path d="M410,1360 L440,1360" class="arrow"/>
    <path d="M720,1360 L750,1360" class="arrow"/>
</svg> 